PathFileType	4	(X/Y/Z)	Trials09_10_11_LegL_markers_cropped.trc
DataRate	CameraRate	NumFrames	NumMarkers	Units	OrigDataRate	OrigDataStartFrame	OrigNumFrames
200	200	6	27	m	200	151	303
Frame#	Time	R_ASIS			L_ASIS			Sacral			L_Thigh_Superior			L_Thigh_Posterior			L_Thigh_Inferior			L_Thigh_Lateral			L_Shank_Posterior			L_Shank_Superior			L_Shank_Lateral			L_Shank_Inferior			L_Midfoot_Superior			L_Heel			L_Midfoot_Lateral			L_Toe			R_Thigh_Posterior			R_Thigh_Superior			R_Thigh_Lateral			R_Thigh_Inferior			R_Shank_Posterior			R_Shank_Superior			R_Shank_Lateral			R_Shank_Inferior			R_Midfoot_Superior			R_Heel			R_Midfoot_Lateral			R_Toe
		X1	Y1	Z1	X2	Y2	Z2	X3	Y3	Z3	X4	Y4	Z4	X5	Y5	Z5	X6	Y6	Z6	X7	Y7	Z7	X8	Y8	Z8	X9	Y9	Z9	X10	Y10	Z10	X11	Y11	Z11	X12	Y12	Z12	X13	Y13	Z13	X14	Y14	Z14	X15	Y15	Z15	X16	Y16	Z16	X17	Y17	Z17	X18	Y18	Z18	X19	Y19	Z19	X20	Y20	Z20	X21	Y21	Z21	X22	Y22	Z22	X23	Y23	Z23	X24	Y24	Z24	X25	Y25	Z25	X26	Y26	Z26	X27	Y27	Z27

152	   0.755	    1.15455131174234	    0.97179762268014	    0.65393358426181	    1.09831431909869	    0.99346305219487	    0.40643560323623	    0.93734637093936	    1.03310634984991	    0.58510251315308	    1.12318792654291	    0.79256178467816	    0.30730216202341	    1.05533064296571	    0.76031825408052	    0.31519662289695	    1.15968356929580	    0.70543190697382	    0.29671779630598	    1.08562999914522	    0.67611796268055	    0.30426404045145	    1.05242566184208	    0.56212922941059	    0.30133832917143	    1.04572267205440	    0.48708185936546	    0.30094265317604	    0.98127539002489	    0.55552845908552	    0.30636018899860	    0.98712947408326	    0.48992981018948	    0.30575903259942	    0.79298474526062	    0.40350575823888	    0.39343107521310	    0.71567435085553	    0.55552863199611	    0.45254852512551	    0.70860812956483	    0.46483187260453	    0.37221660402277	    0.77009612392705	    0.27388579594350	    0.37645310074353	    1.07180406345065	    0.75488432668286	    0.71169010780744	    1.14465723292464	    0.75478351707332	    0.69194703005408	    1.07289968433548	    0.65636227521332	    0.69599000057079	    1.14243296153336	    0.65961485332662	    0.68075912137063	    1.00682158212728	    0.33968726221326	    0.65785339650176	    1.08011103276215	    0.32667992055666	    0.63981918058092	    0.99941744656915	    0.27161586782768	    0.63756059363352	    1.06985678456351	    0.27010974326935	    0.62211711832278	    1.09066830274359	    0.08778245434198	    0.53619876616413	    0.92021416249445	    0.04485450315790	    0.50519450646969	    1.01587381185634	    0.01420884158972	    0.57975120045237	    1.21471733522694	    0.04102070247685	    0.54587710088568
153	   0.760	    1.15484129317986	    0.97185122203419	    0.65381861164851	    1.09853185092361	    0.99328965614336	    0.40632833340967	    0.93789126604611	    1.03293305977537	    0.58476370889239	    1.12334513847106	    0.79231715853669	    0.30720055124301	    1.05552199033238	    0.75996345016542	    0.31511431456648	    1.15996532892751	    0.70522468524377	    0.29673500280419	    1.08595323662172	    0.67581286197266	    0.30427697843024	    1.05208883486719	    0.55959769142883	    0.30100738880112	    1.04694167124211	    0.48435113682740	    0.30063866121284	    0.98109062634563	    0.55151829995464	    0.30569185407009	    0.98828549021945	    0.48597062443631	    0.30517739150850	    0.79584034074713	    0.39526737956385	    0.39194744479050	    0.71507355882616	    0.54551858891979	    0.45098602897731	    0.71029509951543	    0.45489713529326	    0.37043469966849	    0.77597326568793	    0.26543523357360	    0.37435735219425	    1.07231055088353	    0.75487621579073	    0.71166353559663	    1.14514601115308	    0.75477285343702	    0.69181831577217	    1.07345779116239	    0.65634901590002	    0.69591861382685	    1.14295136777711	    0.65961451826412	    0.68061155677934	    1.00728629177074	    0.33967300145540	    0.65782189092143	    1.08049331460756	    0.32657926321107	    0.63969041321532	    0.99974438256851	    0.27158812150439	    0.63753269321354	    1.07017955142423	    0.27003637441184	    0.62197371262879	    1.09067994411178	    0.08781118088485	    0.53616567184493	    0.92021924480169	    0.04484346761459	    0.50517746620972	    1.01589993733559	    0.01427872808106	    0.57968491664251	    1.21471917286962	    0.04103999606274	    0.54581683632712
154	   0.765	    1.15518923846725	    0.97190811195094	    0.65362956251787	    1.09869000327235	    0.99305154203331	    0.40618452360481	    0.93833801070865	    1.03268937158312	    0.58453440231714	    1.12354946208550	    0.79200683234908	    0.30728762227381	    1.05573749454885	    0.75960980465643	    0.31509232721507	    1.16023339332913	    0.70494662405082	    0.29689189920519	    1.08624421708185	    0.67547878924319	    0.30432951970121	    1.05151970710253	    0.55683071975542	    0.30083068273800	    1.04812116962552	    0.48134428404842	    0.30030047422920	    0.98073613025998	    0.54706398420782	    0.30515100818210	    0.98943733168849	    0.48156347135236	    0.30450087419117	    0.79900866663092	    0.38580432075724	    0.39024097937722	    0.71455642422110	    0.53376437207902	    0.44967238213968	    0.71227504828105	    0.44364615227076	    0.36847592971452	    0.78269410826384	    0.25599886555980	    0.37117209407385	    1.07290719491593	    0.75486944255215	    0.71164116086990	    1.14570246475107	    0.75478465593842	    0.69162223738705	    1.07406827100567	    0.65631928423330	    0.69587383517390	    1.14352062553475	    0.65961172177284	    0.68038940701093	    1.00765286249732	    0.33965829761993	    0.65781399971249	    1.08081938413284	    0.32650008179068	    0.63959877372842	    1.00000461266174	    0.27157422890362	    0.63753145101893	    1.07043839844991	    0.26997567696524	    0.62188025772832	    1.09069444943042	    0.08782786383247	    0.53614041456579	    0.92021914548587	    0.04483542920238	    0.50516628110802	    1.01591348563731	    0.01430882340213	    0.57965123853866	    1.21472462270324	    0.04104072539906	    0.54576519969198
155	   0.770	    1.15554984548554	    0.97199617889316	    0.65340009353921	    1.09878484318374	    0.99280239481935	    0.40602975795480	    0.93857742292237	    1.03237082549979	    0.58451133901879	    1.12364455913081	    0.79161049373515	    0.30747665585568	    1.05584985068735	    0.75920515666631	    0.31519290995664	    1.16037782912255	    0.70456632421468	    0.29712375131626	    1.08640217943712	    0.67507982802258	    0.30448884730764	    1.05078726006017	    0.55393105382816	    0.30080565348896	    1.04930141263928	    0.47837854023049	    0.29967877894210	    0.98026587943815	    0.54234857662746	    0.30479026930293	    0.99058118546321	    0.47697186892296	    0.30375317571622	    0.80257614790397	    0.37554676868153	    0.38829394406958	    0.71418676804155	    0.52081487851686	    0.44842124321069	    0.71458291164587	    0.43148227893210	    0.36632134353306	    0.79004689503000	    0.24580435626662	    0.36746370996370	    1.07357448384863	    0.75486451134804	    0.71163277533185	    1.14629249642836	    0.75482032286409	    0.69141172893869	    1.07469599002243	    0.65631527836929	    0.69586679268405	    1.14410775733969	    0.65962327672681	    0.68014247555995	    1.00793872354348	    0.33965508495916	    0.65786018644841	    1.08107930973187	    0.32644168605770	    0.63953935390624	    1.00020748883713	    0.27155924777144	    0.63755769974060	    1.07062651460697	    0.26992127799180	    0.62182454303631	    1.09069930113814	    0.08783973334063	    0.53611922277884	    0.92021208805015	    0.04482766898593	    0.50516586095364	    1.01591176529015	    0.01432186063723	    0.57959096637639	    1.21473237322133	    0.04103152117936	    0.54571185530957
156	   0.775	    1.15590626890041	    0.97209897087091	    0.65320287552507	    1.09886475132839	    0.99258102410279	    0.40589188786718	    0.93874649025215	    1.03209110672621	    0.58458588557514	    1.12356706727390	    0.79113066293272	    0.30763735901890	    1.05579822255030	    0.75871973192246	    0.31543992776006	    1.16032992098305	    0.70408830834890	    0.29733602660031	    1.08636748437972	    0.67459159885231	    0.30482745107243	    1.04995985585465	    0.55079036638133	    0.30086284274580	    1.05047968298248	    0.47526673343219	    0.29895662514177	    0.97973672620810	    0.53732456153385	    0.30447142522527	    0.99174056664085	    0.47226589529524	    0.30290582889911	    0.80655051488172	    0.36476297028595	    0.38609417208062	    0.71393816044928	    0.50706823403594	    0.44683718572532	    0.71719229403230	    0.41851988963490	    0.36394230038279	    0.79791971568623	    0.23503213592600	    0.36385862204762	    1.07421439303745	    0.75486102644964	    0.71165108042848	    1.14687692363082	    0.75485858811471	    0.69124792277817	    1.07530636459001	    0.65631434548433	    0.69586551332488	    1.14467189863912	    0.65963425552162	    0.67995270449500	    1.00822972466233	    0.33965847382726	    0.65789327164540	    1.08133613714530	    0.32639197090787	    0.63948710449570	    1.00041725631915	    0.27154849957252	    0.63757896659634	    1.07080308465889	    0.26987112264485	    0.62177285955067	    1.09070791286367	    0.08785117003247	    0.53608713672785	    0.92021009724262	    0.04482340485908	    0.50516117238059	    1.01591196119379	    0.01434518686282	    0.57956912522823	    1.21474710174251	    0.04100183141159	    0.54566417086767
157	   0.780	    1.15623805455814	    0.97219879914859	    0.65310348725188	    1.09897112316536	    0.99240954025376	    0.40582325684089	    0.93892523396257	    1.03188931084199	    0.58465844832285	    1.12340145842741	    0.79060368002752	    0.30771877280351	    1.05564322907808	    0.75819751918296	    0.31577419108287	    1.16014720321557	    0.70356246623793	    0.29751275116202	    1.08619366332404	    0.67404424480853	    0.30529647324431	    1.04904598736587	    0.54738045890557	    0.30097585259922	    1.05166901322732	    0.47192126321141	    0.29834823696273	    0.97922484078392	    0.53193187655361	    0.30413794446029	    0.99295280080263	    0.46740168077208	    0.30200139557676	    0.81090932772933	    0.35369691288914	    0.38366265788414	    0.71385631982282	    0.49266951390013	    0.44495157223957	    0.72010673969644	    0.40491809809195	    0.36141470177778	    0.80630175147161	    0.22387422276058	    0.36035254887454	    1.07474258816673	    0.75483973208163	    0.71170411903281	    1.14739068622465	    0.75488909482258	    0.69115614492241	    1.07585905019675	    0.65628921561324	    0.69585857751116	    1.14517756966299	    0.65963906609701	    0.67983065224425	    1.00857336605536	    0.33964720095852	    0.65788913273351	    1.08164426731394	    0.32634749989082	    0.63943241943443	    1.00068522754223	    0.27154293930535	    0.63757953059443	    1.07103447047093	    0.26982675198365	    0.62170871719074	    1.09073569665522	    0.08787063254927	    0.53604068234501	    0.92023104168398	    0.04483111084273	    0.50515347889540	    1.01593147750714	    0.01437279422958	    0.57957438339424	    1.21477644137869	    0.04095469065660	    0.54563430102702
